Coordinates
version=1
nRows=22
nColumns=24
inDegrees=yes

Units are S.I. units (second, meters, Newtons, ...)
Angles are in degrees.

endheader
time	pelvis_tilt	pelvis_list	pelvis_rotation	pelvis_tx	pelvis_ty	pelvis_tz	hip_flexion_r	hip_adduction_r	hip_rotation_r	knee_angle_r	ankle_angle_r	subtalar_angle_r	mtp_angle_r	hip_flexion_l	hip_adduction_l	hip_rotation_l	knee_angle_l	ankle_angle_l	subtalar_angle_l	mtp_angle_l	lumbar_extension	lumbar_bending	lumbar_rotation
     13.89000000	     60.76212960	    -11.23649545	     -7.85787268	      0.42605615	      1.05902577	     -0.33943019	     15.95248363	      1.88688550	     10.58132123	     -8.57571030	     -3.16446836	     38.63688943	      0.00000000	     -0.12588644	    -25.61610748	     -8.18709429	    -59.07502410	     25.29053116	     27.35365171	      0.00000000	      0.00000000	      0.00000000	      0.00000000
     13.90000000	     60.77713742	    -11.24740563	     -7.85799669	      0.42604521	      1.05904640	     -0.33941829	     15.93029536	      1.89978317	     10.57640363	     -8.56506093	     -3.16361031	     38.63373281	      0.00000000	     -0.14943020	    -25.62612145	     -8.19160475	    -59.07106999	     25.28469381	     27.35535506	      0.00000000	      0.00000000	      0.00000000	      0.00000000
     13.91000000	     60.79688334	    -11.26213967	     -7.85920589	      0.42601907	      1.05907196	     -0.33939645	     15.90235708	      1.91652603	     10.57504221	     -8.55283809	     -3.16471938	     38.63262352	      0.00000000	     -0.18076652	    -25.64029720	     -8.19971436	    -59.06443577	     25.27784984	     27.35659221	      0.00000000	      0.00000000	      0.00000000	      0.00000000
     13.92000000	     60.81737452	    -11.27772974	     -7.86152006	      0.42597705	      1.05909665	     -0.33936335	     15.87456725	      1.93420441	     10.57842442	     -8.54100471	     -3.16734794	     38.63368224	      0.00000000	     -0.21361303	    -25.65538689	     -8.20953740	    -59.05692252	     25.27160596	     27.35692799	      0.00000000	      0.00000000	      0.00000000	      0.00000000
     13.93000000	     60.83477978	    -11.29114600	     -7.86484632	      0.42593910	      1.05911697	     -0.33932830	     15.85204288	      1.94986882	     10.58667503	     -8.53110167	     -3.17139732	     38.63455700	      0.00000000	     -0.24226623	    -25.66807179	     -8.21901599	    -59.05050331	     25.26728888	     27.35620969	      0.00000000	      0.00000000	      0.00000000	      0.00000000
     13.94000000	     60.84643248	    -11.29999516	     -7.86887900	      0.42592657	      1.05912842	     -0.33930575	     15.83786094	      1.96133046	     10.59861572	     -8.52411678	     -3.17735896	     38.63039787	      0.00000000	     -0.26256240	    -25.67586710	     -8.22633844	    -59.04681643	     25.26561465	     27.35457384	      0.00000000	      0.00000000	      0.00000000	      0.00000000
     13.95000000	     60.85173305	    -11.30335466	     -7.87283385	      0.42592651	      1.05912896	     -0.33929498	     15.83248846	      1.96780788	     10.61184192	     -8.52045466	     -3.18633368	     38.61471221	      0.00000000	     -0.27261965	    -25.67788765	     -8.23046320	    -59.04663066	     25.26650513	     27.35238477	      0.00000000	      0.00000000	      0.00000000	      0.00000000
     13.96000000	     60.85223619	    -11.30216872	     -7.87523546	      0.42591007	      1.05912255	     -0.33928207	     15.83399813	      1.96999149	     10.62304317	     -8.52001713	     -3.19969494	     38.58119098	      0.00000000	     -0.27346775	    -25.67530299	     -8.23155357	    -59.04959426	     25.26909370	     27.35013541	      0.00000000	      0.00000000	      0.00000000	      0.00000000
     13.97000000	     60.85076268	    -11.29896705	     -7.87442499	      0.42588702	      1.05911729	     -0.33926651	     15.83872546	      1.96971866	     10.62853777	     -8.52242578	     -3.21835487	     38.52634300	      0.00000000	     -0.26923346	    -25.67130146	     -8.23098915	    -59.05434721	     25.27192250	     27.34835064	      0.00000000	      0.00000000	      0.00000000	      0.00000000
     13.98000000	     60.85032663	    -11.29727687	     -7.86997510	      0.42589830	      1.05912116	     -0.33926663	     15.84219198	      1.96965959	     10.62514332	     -8.52724031	     -3.24175804	     38.45246323	      0.00000000	     -0.26626172	    -25.67026624	     -8.23083164	    -59.05878877	     25.27335425	     27.34750747	      0.00000000	      0.00000000	      0.00000000	      0.00000000
     13.99000000	     60.85357225	    -11.30080361	     -7.86386884	      0.42594492	      1.05913951	     -0.33928985	     15.84033822	      1.97291719	     10.61150131	     -8.53394313	     -3.26689421	     38.37015857	      0.00000000	     -0.27100111	    -25.67598194	     -8.23303346	    -59.06042887	     25.27217839	     27.34796620	      0.00000000	      0.00000000	      0.00000000	      0.00000000
     14.00000000	     60.86239691	    -11.31183659	     -7.85994874	      0.42597393	      1.05917269	     -0.33931482	     15.83082038	      1.98205942	     10.58973277	     -8.54169527	     -3.28771983	     38.29946190	      0.00000000	     -0.28733237	    -25.68932118	     -8.23878078	    -59.05715233	     25.26822587	     27.34991258	      0.00000000	      0.00000000	      0.00000000	      0.00000000
     14.01000000	     60.87720072	    -11.32908209	     -7.86151435	      0.42594652	      1.05921106	     -0.33931036	     15.81385939	      1.99751313	     10.56695282	     -8.54914826	     -3.29537602	     38.26859248	      0.00000000	     -0.31449685	    -25.70662416	     -8.24816578	    -59.04856935	     25.26270340	     27.35332219	      0.00000000	      0.00000000	      0.00000000	      0.00000000
     14.02000000	     60.89620393	    -11.34644762	     -7.86875624	      0.42587924	      1.05923641	     -0.33926529	     15.79245233	      2.01570294	     10.55577694	     -8.55457871	     -3.27944790	     38.30975226	      0.00000000	     -0.34652729	    -25.72029896	     -8.26009970	    -59.03726675	     25.25806223	     27.35794567	      0.00000000	      0.00000000	      0.00000000	      0.00000000
     14.03000000	     60.91551089	    -11.35446267	     -7.87817656	      0.42580990	      1.05923664	     -0.33920699	     15.77201025	      2.02718519	     10.57267570	     -8.55644576	     -3.23021846	     38.45203394	      0.00000000	     -0.37361490	    -25.72229822	     -8.27227386	    -59.02884489	     25.25741827	     27.36329638	      0.00000000	      0.00000000	      0.00000000	      0.00000000
     14.04000000	     60.92964261	    -11.34472180	     -7.88484320	      0.42575691	      1.05921724	     -0.33919400	     15.75917691	      2.01568303	     10.63336554	     -8.55431853	     -3.14151219	     38.71253262	      0.00000000	     -0.38525731	    -25.70885509	     -8.28119453	    -59.03028088	     25.26365418	     27.36866234	      0.00000000	      0.00000000	      0.00000000	      0.00000000
     14.05000000	     60.93228304	    -11.31542136	     -7.88605697	      0.42574587	      1.05918462	     -0.33925930	     15.75969130	      1.96103028	     10.74577157	     -8.54969724	     -3.01340301	     39.08789006	      0.00000000	     -0.37391017	    -25.68267483	     -8.28280485	    -59.04710064	     25.27841113	     27.37322512	      0.00000000	      0.00000000	      0.00000000	      0.00000000
     14.06000000	     60.91800404	    -11.27347433	     -7.88332667	      0.42585307	      1.05911700	     -0.33933624	     15.77614664	      1.84983634	     10.90319822	     -8.54574284	     -2.85388128	     39.54929283	      0.00000000	     -0.33724436	    -25.64964506	     -8.27425517	    -59.08045580	     25.30128301	     27.37633203	      0.00000000	      0.00000000	      0.00000000	      0.00000000
     14.07000000	     60.88552654	    -11.22858620	     -7.88039436	      0.42614266	      1.05898052	     -0.33930418	     15.80712698	      1.69226221	     11.08192442	     -8.54534309	     -2.67868371	     40.04374325	      0.00000000	     -0.27826224	    -25.61238667	     -8.25616648	    -59.12552747	     25.32955212	     27.37779403	      0.00000000	      0.00000000	      0.00000000	      0.00000000
     14.08000000	     60.84070298	    -11.18297082	     -7.87909585	      0.42651687	      1.05880078	     -0.33918613	     15.84818254	      1.53035659	     11.24670369	     -8.54881479	     -2.50897958	     40.50274302	      0.00000000	     -0.20447254	    -25.56820448	     -8.23321601	    -59.17249011	     25.35864427	     27.37793193	      0.00000000	      0.00000000	      0.00000000	      0.00000000
     14.09000000	     60.79524304	    -11.13212101	     -7.87802489	      0.42672841	      1.05867579	     -0.33918525	     15.89304959	      1.41788968	     11.36350977	     -8.55417584	     -2.36739362	     40.85668842	      0.00000000	     -0.12759973	    -25.51587425	     -8.21162995	    -59.21012424	     25.38318980	     27.37723799	      0.00000000	      0.00000000	      0.00000000	      0.00000000
     14.10000000	     60.76052770	    -11.08010468	     -7.87551654	      0.42665499	      1.05866762	     -0.33939957	     15.93380673	      1.38037351	     11.41264265	     -8.56043356	     -2.27355334	     41.05063061	      0.00000000	     -0.06303752	    -25.46454235	     -8.19543084	    -59.23030187	     25.39834279	     27.37592992	      0.00000000	      0.00000000	      0.00000000	      0.00000000
